<?xml version="1.0" encoding="utf-8"?>
<!-- Generator: Adobe Illustrator 25.4.0, SVG Export Plug-In . SVG Version: 6.00 Build 0)  -->
<svg version="1.1" id="Layer_1" xmlns="http://www.w3.org/2000/svg" xmlns:xlink="http://www.w3.org/1999/xlink" x="0px" y="0px"
	 viewBox="0 0 800 800" style="enable-background:new 0 0 800 800;" xml:space="preserve">
<style type="text/css">
	.st0{fill:#00599C;}
	.st1{fill:#004482;}
	.st2{fill:#659AD2;}
	.st3{fill:#FFFFFF;}
</style>
<g>
	<path class="st0" d="M734.1,600c5.4-9.7,8.7-20.5,8.7-30.3V230.3c0-9.8-3.3-20.7-8.7-30.3L400,400L734.1,600z"/>
	<path class="st1" d="M429.7,792.7L713.2,623c8.2-4.9,15.6-13.3,21-23L400,400L65.9,600c5.4,9.7,12.8,18.1,21,23l283.5,169.7
		C386.6,802.4,413.4,802.4,429.7,792.7z"/>
	<path class="st2" d="M734.1,200c-5.4-9.7-12.8-18.1-21-23L429.7,7.3c-16.3-9.8-43.1-9.8-59.4,0L86.8,177
		c-16.3,9.8-29.7,33.8-29.7,53.3v339.4c0,9.8,3.3,20.7,8.7,30.3L400,400L734.1,200z"/>
	<path class="st3" d="M401.1,628.6C274.5,628.6,171.4,526,171.4,400s103-228.6,229.7-228.6c80.2,0,155.1,42.2,196.6,110.3l-98.4,59
		c-20.8-34-58.2-55-98.2-55c-63.3,0-114.8,51.3-114.8,114.3s51.5,114.3,114.8,114.3c39.9,0,77.2-20.9,98.1-54.8l98.6,58.6
		C556.3,586.4,481.3,628.6,401.1,628.6z"/>
	<path class="st3" d="M600,385.6h-28.6v-28.4h-28.6v28.4h-28.6V414h28.6v28.4h28.6V414H600V385.6z"/>
	<path class="st3" d="M714.3,385.7h-28.6v-28.6h-28.6v28.6h-28.6v28.6h28.6v28.6h28.6v-28.6h28.6V385.7z"/>
</g>
</svg>
