<svg xmlns="http://www.w3.org/2000/svg" viewBox="0 0 166.95 222.6"><defs><style>.cls-1{fill:#f44336;}.cls-2{fill:#1565c0;}</style></defs><g id="Layer_2" data-name="Layer 2"><g id="Layer_1-2" data-name="Layer 1"><path class="cls-1" d="M81.53,116.3A170.86,170.86,0,0,1,66.36,85.94C56.92,62.33,123.76,41,96.66,0,108.41,28.32,54.5,45.83,49.49,69.41,44.91,91.1,81.5,116.3,81.53,116.3Z"/><path class="cls-1" d="M82.79,73.85c-1.06,14,12.41,21.47,12.8,31.69.31,8.33-8,15.27-8,15.27s15.18-3,19.91-15.68c5.26-14.1-10.2-23.76-8.61-35,1.48-10.79,33.56-30.85,33.56-30.85S85.2,42.36,82.79,73.85Z"/><path class="cls-2" d="M128.46,117.17c9.76-2.19,18,4,18,11.19,0,16.14-22.37,31.4-22.37,31.4s34.64-4.13,34.64-30.63C158.72,111.6,141.7,107.22,128.46,117.17ZM112,130.2s10.8-7.7,13.67-10.59c-26.5,5.63-87,6.39-87,1.5,0-4.5,19.52-9.12,19.52-9.12s-43.26-.62-43.26,12.14C14.93,137.43,71.55,138.38,112,130.2Z"/><path class="cls-2" d="M105.37,142.31c-25.09,8.34-71.31,5.67-57.62-5.53-6.66,0-16.55,5.36-16.55,10.51,0,10.34,50,18.32,87,3.19Z"/><path class="cls-2" d="M53.9,159.94c-9.1,0-15,5.86-15,10.13,0,13.31,54.32,14.65,75.84,1.15l-13.68-9.09C85,169.2,44.6,170.17,53.9,159.94Z"/><path class="cls-2" d="M151.82,181.6c0-5.21-5.87-7.66-8-8.84,12.4,29.9-124.19,27.58-124.19,9.93,0-4,10.06-7.94,19.35-6.08l-7.9-4.67C12.58,169,0,177.18,0,183.74,0,214.37,151.82,212.89,151.82,181.6Z"/><path class="cls-2" d="M167,192.57c-23.07,22.79-81.58,31.09-140.41,17C85.37,234.64,166.67,220.53,167,192.57Z"/></g></g></svg>